Coordinates
version=1
nRows=11
nColumns=40
inDegrees=yes

Units are S.I. units (second, meters, Newtons, ...)
Angles are in degrees.

endheader
time	pelvis_tilt	pelvis_list	pelvis_rotation	pelvis_tx	pelvis_ty	pelvis_tz	hip_flexion_r	hip_adduction_r	hip_rotation_r	knee_angle_r	knee_angle_r_beta	ankle_angle_r	subtalar_angle_r	mtp_angle_r	hip_flexion_l	hip_adduction_l	hip_rotation_l	knee_angle_l	knee_angle_l_beta	ankle_angle_l	subtalar_angle_l	mtp_angle_l	lumbar_extension	lumbar_bending	lumbar_rotation	arm_flex_r	arm_add_r	arm_rot_r	elbow_flex_r	pro_sup_r	wrist_flex_r	wrist_dev_r	arm_flex_l	arm_add_l	arm_rot_l	elbow_flex_l	pro_sup_l	wrist_flex_l	wrist_dev_l
     58.17300000	     -6.43693363	     -4.18499269	      0.00955317	      0.86152599	      0.92978834	      0.39462370	     29.24305676	     -3.32889178	    -12.68905347	     18.64344786	     18.64344786	      2.97278273	     -0.70801345	      2.23240970	      5.19013385	     -3.14361869	     -8.50622338	     15.62329068	     15.62329068	     17.35021323	     -4.20788738	     -0.62262147	     -9.91981931	      4.31565069	      1.76761638	    -10.26691110	    -12.36602168	     -3.33358629	     24.24069541	     46.49637646	      0.00000000	      0.00000000	     13.40296852	    -13.88917257	    -13.88215471	     77.85825980	     47.43410289	      0.00000000	      0.00000000
     58.18600000	     -6.42920421	     -4.10266472	      0.07356295	      0.86256800	      0.92834326	      0.39580145	     28.75993047	     -3.12891515	    -13.36362156	     16.96475324	     16.96475324	      3.02299122	      0.18271576	      2.85065316	      4.42425037	     -3.09568789	     -8.49144349	     15.21102254	     15.21102254	     17.69079279	     -3.97846532	     -0.92461066	     -9.77212181	      4.25392603	      1.70692052	    -11.55846062	    -12.18179924	     -3.41253516	     24.19811003	     46.49056873	      0.00000000	      0.00000000	     13.84151112	    -13.92848979	    -14.03043573	     78.67027347	     47.46577508	      0.00000000	      0.00000000
     58.19900000	     -6.30513707	     -4.07753889	      0.13892100	      0.86389580	      0.92698248	      0.39706711	     28.17776229	     -2.93081776	    -14.23748841	     15.81872644	     15.81872644	      3.14156960	      1.06970004	      3.52629601	      3.47107712	     -3.11868357	     -8.52923252	     14.72492210	     14.72492210	     17.99383549	     -3.71060167	     -1.34463121	     -9.73291250	      4.25357097	      1.81106231	    -12.81187438	    -12.10126378	     -3.59395066	     24.46497126	     46.47946650	      0.00000000	      0.00000000	     14.12222525	    -13.78397014	    -14.14237727	     79.69885627	     47.50208011	      0.00000000	      0.00000000
     58.21200000	     -6.31061682	     -4.03531385	      0.18900233	      0.86525529	      0.92530501	      0.39844545	     27.87496444	     -2.78619180	    -14.81566781	     15.32490423	     15.32490423	      3.23492211	      1.48851308	      3.92190997	      2.71650727	     -3.13237880	     -8.50913159	     14.35531406	     14.35531406	     18.30663200	     -3.53905941	     -1.75768142	     -9.49953723	      4.28207513	      1.82522978	    -13.87633215	    -11.91233536	     -3.77383417	     24.79405390	     46.46713890	      0.00000000	      0.00000000	     14.34952486	    -13.77865978	    -14.27825960	     80.55341416	     47.53744617	      0.00000000	      0.00000000
     58.22500000	     -6.29356503	     -4.00522691	      0.22923303	      0.86673921	      0.92353724	      0.39997485	     27.64322033	     -2.66014986	    -15.18755120	     15.37202214	     15.37202214	      3.29087561	      1.50343459	      3.94218585	      1.98540738	     -3.18045262	     -8.46845241	     14.09454211	     14.09454211	     18.62779790	     -3.47231382	     -2.25823249	     -9.29905113	      4.31347549	      1.83417649	    -14.82314091	    -11.77853636	     -4.04379931	     25.38526858	     46.45104909	      0.00000000	      0.00000000	     14.43978176	    -13.75495925	    -14.42882804	     81.42307529	     47.58010794	      0.00000000	      0.00000000
     58.23800000	     -6.32425510	     -4.05727523	      0.30437125	      0.86831920	      0.92174557	      0.40160263	     27.43801992	     -2.48167619	    -15.43612774	     15.67392890	     15.67392890	      3.27397066	      1.25888455	      3.84405826	      1.42571483	     -3.34133870	     -8.31484276	     14.07473334	     14.07473334	     19.08646909	     -3.51604396	     -2.42899472	     -8.96379743	      4.47115824	      1.70837184	    -15.28517783	    -11.66674343	     -4.06106423	     25.29792883	     46.45130315	      0.00000000	      0.00000000	     14.51126002	    -13.85238374	    -14.50806406	     81.57006553	     47.59070788	      0.00000000	      0.00000000
     58.25100000	     -6.25688168	     -4.14353111	      0.33329490	      0.87004876	      0.92011439	      0.40336426	     27.21805463	     -2.28648910	    -15.53036667	     16.36321764	     16.36321764	      3.27085194	      0.82994937	      3.50695237	      0.78171387	     -3.55398589	     -8.20071179	     14.12582315	     14.12582315	     19.55078285	     -3.59431542	     -2.58161811	     -8.78473460	      4.66981972	      1.74615914	    -15.59606142	    -11.58463674	     -4.08471516	     25.28000231	     46.45051404	      0.00000000	      0.00000000	     14.51940171	    -13.79732585	    -14.58131616	     81.84298517	     47.60382050	      0.00000000	      0.00000000
     58.26400000	     -6.16990504	     -4.18234666	      0.33187328	      0.87182004	      0.91854232	      0.40528658	     27.06340340	     -2.14564612	    -15.38265058	     17.33670536	     17.33670536	      3.27332421	      0.16011723	      2.91346202	      0.21029774	     -3.74782145	     -8.11565405	     14.37322866	     14.37322866	     20.03544917	     -3.73286178	     -2.71922814	     -8.65101221	      4.80348700	      1.83498791	    -15.72705694	    -11.54087673	     -4.11309804	     25.32110046	     46.44936266	      0.00000000	      0.00000000	     14.46684180	    -13.68300414	    -14.66870435	     82.16913305	     47.61946830	      0.00000000	      0.00000000
     58.27700000	     -6.08231370	     -4.21858102	      0.33882926	      0.87366592	      0.91710713	      0.40728037	     26.96233320	     -2.00349548	    -14.98227127	     18.48497146	     18.48497146	      3.27437804	     -0.78678071	      2.06313259	     -0.19989217	     -3.97573649	     -7.98537434	     14.93217383	     14.93217383	     20.49065041	     -3.91612042	     -2.81097217	     -8.49587066	      4.93057123	      1.90508110	    -15.65870438	    -11.52332192	     -4.13923167	     25.39784129	     46.44853068	      0.00000000	      0.00000000	     14.31489933	    -13.59083061	    -14.80085499	     82.47374858	     47.63856950	      0.00000000	      0.00000000
     58.29000000	     -6.00106340	     -4.34118006	      0.34582309	      0.87552809	      0.91588540	      0.40955075	     26.67056604	     -1.60111955	    -14.17371412	     19.13734002	     19.13734002	      2.23575179	     -2.75097106	     -1.26481736	     -0.38216977	     -4.40250198	     -8.10974838	     15.94929978	     15.94929978	     21.35209100	     -3.73061879	     -2.23728967	     -8.36247958	      5.15857392	      1.60939114	    -15.08588197	    -11.49308390	     -4.10032282	     25.33966320	     46.45294637	      0.00000000	      0.00000000	     13.56293141	    -13.52131918	    -15.51306401	     83.24396825	     47.73453435	      0.00000000	      0.00000000
     58.30300000	     -5.73761207	     -4.47939244	      0.29460872	      0.87758552	      0.91539581	      0.41177511	     26.22796198	     -1.34217366	    -13.96625202	     20.05598868	     20.05598868	      2.60548670	     -3.01039065	     -1.60533189	     -0.91765979	     -4.76296059	     -8.01674949	     16.62912051	     16.62912051	     21.57683698	     -4.10309355	     -2.35256167	     -8.43547073	      5.46183808	      1.80566688	    -14.59509876	    -11.45335959	     -4.07403457	     25.45724250	     46.45050671	      0.00000000	      0.00000000	     13.19076352	    -13.26746381	    -15.43107258	     83.04852089	     47.72489634	      0.00000000	      0.00000000
